
<svg xmlns="http://www.w3.org/2000/svg" xmlns:xlink="http://www.w3.org/1999/xlink" width="1024" height="1024">
	<path fill="#5BB759" transform="scale(2 2)" d="M308.702 190.127C292.638 158.159 252.957 144.172 220.457 158.977C211.81 162.915 203.93 167.962 194.35 161.99C186.935 157.367 183.778 148.178 186.801 139.917C189.696 132.007 197.164 128.553 204.337 125.289C258.791 100.512 321.345 125.685 345.719 179.728C347.206 183.026 348.869 186.582 349.598 190.127C351.925 199.166 354.699 207.832 354.232 217.309C358.285 217.17 369.572 217.137 367.156 224.786L366.841 224.879C362.844 226.093 359.934 230.122 357.098 232.985L346.12 244.041C342.645 247.527 338.136 252.95 332.598 249.984C327.824 247.427 311.801 230.014 306.743 224.786L306.684 223.994C306.21 216.643 310.668 217.259 316.575 217.309C316.312 210.547 313.023 195.135 308.702 190.127Z"/>
	<path fill="#378DD7" transform="scale(2 2)" d="M308.702 190.127C313.023 195.135 316.312 210.547 316.575 217.309C310.668 217.259 306.21 216.643 306.684 223.994L306.743 224.786C311.801 230.014 327.824 247.427 332.598 249.984C338.136 252.95 342.645 247.527 346.12 244.041L357.098 232.985C359.934 230.122 362.844 226.093 366.841 224.879L367.156 224.786C369.572 217.137 358.285 217.17 354.232 217.309C354.699 207.832 351.925 199.166 349.598 190.127L391.955 190.121C404.856 190.109 419.12 187.915 429.319 197.671C441.186 209.024 437.394 236.697 437.395 252.314L437.407 351.375C437.459 375.093 434.946 391.098 406.72 391.498C383.342 391.829 359.908 391.507 336.526 391.507L112.018 391.514C91.9007 391.502 74.802 387.161 74.612 363.419L74.6112 231.655C74.5867 225.661 74.0658 219.256 75.0289 213.33C79.1498 187.975 103.009 190.129 121.67 190.132L308.702 190.127ZM367.156 224.786L366.841 224.879C362.844 226.093 359.934 230.122 357.098 232.985L346.12 244.041C342.645 247.527 338.136 252.95 332.598 249.984C327.824 247.427 311.801 230.014 306.743 224.786C300.044 222.614 289.329 235.539 286.219 239.937C280.446 248.103 290.039 254.961 295.233 260.123L321.733 286.663C335.262 300.37 338.213 297.151 350.987 284.184L377.965 256.96C383.341 251.617 390.015 245.589 383.525 238.136C380.107 234.21 372.559 225.166 367.156 224.786Z"/>
	<path fill="#DBE6EC" transform="scale(2 2)" d="M200.254 260.732C207.923 260.292 226.63 259.942 234.078 260.839C246.444 262.33 246.094 278.181 234.51 281.107C228.326 281.389 201.076 282.069 196.809 279.686C188.027 274.78 191.15 262.929 200.254 260.732Z"/>
	<path fill="#DBE6EC" transform="scale(2 2)" d="M133.766 260.732L155.674 260.715C159.543 260.714 163.651 260.434 167.492 260.93C178.079 262.299 179.568 279.237 165.563 281.107L143.6 281.126C138.671 281.128 131.841 282.292 127.541 279.234C118.477 272.787 123.047 261.792 133.766 260.732Z"/>
	<path fill="#DBE6EC" transform="scale(2 2)" d="M143.991 307.109L221.674 307.103C226.103 307.109 230.99 306.953 235.355 307.746C243.52 309.229 245.289 319.239 239.753 324.574C235.743 328.437 227.345 327.235 222.125 327.205L142.688 327.211C139.074 327.21 135.314 327.433 131.731 326.942C123.823 325.86 120.483 316.053 125.978 310.4C130.244 306.009 138.345 307.086 143.991 307.109Z"/>
</svg>
